<svg width="60" height="60" viewBox="0 0 60 60" fill="none" xmlns="http://www.w3.org/2000/svg">
<path fill-rule="evenodd" clip-rule="evenodd" d="M5.625 30C5.625 16.5426 16.5426 5.625 30 5.625C43.4574 5.625 54.375 16.5426 54.375 30C54.375 43.4574 43.4574 54.375 30 54.375C16.5426 54.375 5.625 43.4574 5.625 30ZM30 9.375C18.6137 9.375 9.375 18.6137 9.375 30C9.375 41.3863 18.6137 50.625 30 50.625C41.3863 50.625 50.625 41.3863 50.625 30C50.625 18.6137 41.3863 9.375 30 9.375Z" fill="#323238"/>
<path fill-rule="evenodd" clip-rule="evenodd" d="M24.375 20.625C25.4105 20.625 26.25 21.4645 26.25 22.5V37.5C26.25 38.5355 25.4105 39.375 24.375 39.375C23.3395 39.375 22.5 38.5355 22.5 37.5V22.5C22.5 21.4645 23.3395 20.625 24.375 20.625Z" fill="#323238"/>
<path fill-rule="evenodd" clip-rule="evenodd" d="M35.625 20.625C36.6605 20.625 37.5 21.4645 37.5 22.5V37.5C37.5 38.5355 36.6605 39.375 35.625 39.375C34.5895 39.375 33.75 38.5355 33.75 37.5V22.5C33.75 21.4645 34.5895 20.625 35.625 20.625Z" fill="#323238"/>
</svg>
