<svg width="60" height="60" viewBox="0 0 60 60" fill="none" xmlns="http://www.w3.org/2000/svg">
<path d="M6.125 30C6.125 16.8187 16.8187 6.125 30 6.125C43.1813 6.125 53.875 16.8187 53.875 30C53.875 43.1813 43.1813 53.875 30 53.875C16.8187 53.875 6.125 43.1813 6.125 30ZM30 8.875C18.3376 8.875 8.875 18.3376 8.875 30C8.875 41.6624 18.3376 51.125 30 51.125C41.6624 51.125 51.125 41.6624 51.125 30C51.125 18.3376 41.6624 8.875 30 8.875Z" fill="#C4C4CC" stroke="black"/>
<path fill-rule="evenodd" clip-rule="evenodd" d="M24.375 20.625C25.4105 20.625 26.25 21.4645 26.25 22.5V37.5C26.25 38.5355 25.4105 39.375 24.375 39.375C23.3395 39.375 22.5 38.5355 22.5 37.5V22.5C22.5 21.4645 23.3395 20.625 24.375 20.625Z" fill="#C4C4CC"/>
<path fill-rule="evenodd" clip-rule="evenodd" d="M35.625 20.625C36.6605 20.625 37.5 21.4645 37.5 22.5V37.5C37.5 38.5355 36.6605 39.375 35.625 39.375C34.5895 39.375 33.75 38.5355 33.75 37.5V22.5C33.75 21.4645 34.5895 20.625 35.625 20.625Z" fill="#C4C4CC"/>
</svg>
